<svg width="339" height="55" viewBox="0 0 339 55" fill="none" xmlns="http://www.w3.org/2000/svg">
<path d="M33.84 42.64V52H5.39997V32.416L0.719971 33.784V23.416L5.39997 22.048V1.45596H17.712V18.376L23.688 16.576V26.944L17.712 28.744V42.64H33.84Z" stroke="#008EFB" stroke-width="3"/>
<path d="M73.3213 11.32V21.544H89.8093V31.048H73.3213V42.136H91.9693V52H61.0093V1.45596H91.9693V11.32H73.3213Z" stroke="#008EFB" stroke-width="3"/>
<path d="M160.082 17.728C160.082 20.656 159.41 23.344 158.066 25.792C156.722 28.192 154.658 30.136 151.874 31.624C149.09 33.112 145.634 33.856 141.506 33.856H133.874V52H121.562V1.45596H141.506C145.538 1.45596 148.946 2.15196 151.73 3.54396C154.514 4.93596 156.602 6.85596 157.994 9.30396C159.386 11.752 160.082 14.56 160.082 17.728ZM140.57 24.064C142.922 24.064 144.674 23.512 145.826 22.408C146.978 21.304 147.554 19.744 147.554 17.728C147.554 15.712 146.978 14.152 145.826 13.048C144.674 11.944 142.922 11.392 140.57 11.392H133.874V24.064H140.57Z" stroke="#008EFB" stroke-width="3"/>
<path d="M206.38 52.504C202.684 52.504 199.372 51.904 196.444 50.704C193.516 49.504 191.164 47.728 189.388 45.376C187.66 43.024 186.748 40.192 186.652 36.88H199.756C199.948 38.752 200.596 40.192 201.7 41.2C202.804 42.16 204.244 42.64 206.02 42.64C207.844 42.64 209.284 42.232 210.34 41.416C211.396 40.552 211.924 39.376 211.924 37.888C211.924 36.64 211.492 35.608 210.628 34.792C209.812 33.976 208.78 33.304 207.532 32.776C206.332 32.248 204.604 31.648 202.348 30.976C199.084 29.968 196.42 28.96 194.356 27.952C192.292 26.944 190.516 25.456 189.028 23.488C187.54 21.52 186.796 18.952 186.796 15.784C186.796 11.08 188.3 7.40796 191.908 4.76796C195.316 2.07996 199.756 0.735962 205.228 0.735962C210.796 0.735962 215.284 2.07996 218.692 4.76796C222.1 7.40796 223.924 11.104 224.164 15.856H210.844C210.748 14.224 210.148 12.952 209.044 12.04C207.94 11.08 206.524 10.6 204.796 10.6C203.308 10.6 202.108 11.008 201.196 11.824C200.284 12.592 199.828 13.72 199.828 15.208C199.828 16.84 200.596 18.112 202.132 19.024C203.668 19.936 206.068 20.92 209.332 21.976C212.596 23.08 215.236 24.136 217.252 25.144C219.316 26.152 221.092 27.616 222.58 29.536C224.068 31.456 224.812 33.928 224.812 36.952C224.812 39.832 224.068 42.448 222.58 44.8C221.14 47.152 219.028 49.024 216.244 50.416C213.46 51.808 210.172 52.504 206.38 52.504Z" stroke="#008EFB" stroke-width="3"/>
<path d="M283.293 52L266.301 29.68V52H253.989V1.45596H266.301V23.632L283.149 1.45596H297.621L278.037 26.224L298.341 52H283.293Z" stroke="#008EFB" stroke-width="3"/>
<path d="M338.104 1.45596V52H325.792V1.45596H338.104Z" stroke="#008EFB" stroke-width="3"/>
</svg>
